<svg xmlns="http://www.w3.org/2000/svg" viewBox="0 0 27.21 12.06">
  <defs>
    <style>
      .cls-1 {
        fill: none;
        stroke: #222221;
        stroke-miterlimit: 10;
        stroke-width: 0.75px;
      }

    </style>
  </defs>
  <g id="Calque_2" data-name="Calque 2">
    <g id="Calque_1-2" data-name="Calque 1">
      <g id="ENG">
        <rect class="cls-1" x="0.38" y="0.38" width="26.46" height="11.31" />
        <polygon class="cls-1"
          points="26.84 4.99 14.64 4.99 14.64 0.38 12.57 0.38 12.57 4.99 0.38 4.99 0.38 7.07 12.57 7.07 12.57 11.69 14.64 11.69 14.64 7.07 26.84 7.07 26.84 4.99" />
        <rect class="cls-1" x="0.38" y="0.38" width="26.46" height="11.31" />
        <polygon class="cls-1"
          points="0.38 0.38 0.38 1.5 8.54 4.99 12.57 4.99 12.57 4.46 3.02 0.38 0.38 0.38 0.38 0.38" />
        <polygon class="cls-1"
          points="26.84 11.69 26.84 10.56 18.67 7.07 14.64 7.07 14.64 7.6 24.2 11.69 26.84 11.69 26.84 11.69" />
        <polygon class="cls-1"
          points="26.84 0.38 26.84 0.38 24.2 0.38 14.64 4.46 14.64 4.99 18.67 4.99 26.84 1.5 26.84 0.38" />
        <polygon class="cls-1"
          points="0.38 10.56 0.38 11.69 0.38 11.69 3.02 11.69 12.57 7.6 12.57 7.07 8.54 7.07 0.38 10.56" />
      </g>
    </g>
  </g>
</svg>
