<svg width="212" height="30" viewBox="0 0 212 30" fill="none" xmlns="http://www.w3.org/2000/svg">
<path d="M211.356 13.227C210.591 12.1981 209.238 11.2912 207.346 10.4137C204.04 8.88949 199.062 7.48721 192.684 6.22863C173.559 2.45836 141.871 0 105.996 0C76.8404 0 50.4469 1.62439 31.3241 4.25585C21.7588 5.57213 14.0145 7.13664 8.62767 8.8884C5.93098 9.76592 3.82609 10.6859 2.35852 11.6712C1.62582 12.1655 1.04703 12.6772 0.639488 13.227C0.23195 13.7768 0 14.3767 0 15.0005C0 15.6244 0.234118 16.2221 0.639488 16.773C1.40471 17.8019 2.75739 18.7088 4.64984 19.5863C7.95566 21.1105 12.9339 22.5128 19.3115 23.7714C38.4343 27.5416 70.1226 29.9989 105.999 30C135.155 30 161.547 28.3745 180.678 25.7442C190.242 24.4279 197.987 22.8623 203.373 21.1116C206.068 20.2341 208.173 19.3141 209.641 18.3288C210.375 17.8345 210.953 17.3228 211.359 16.773C211.766 16.2232 212 15.6233 212 15.0005C212 14.3778 211.757 13.7746 211.356 13.227ZM91.2007 1.6331C88.2504 2.3288 85.5646 3.227 83.2201 4.29069C80.2937 5.62439 77.8994 7.21502 76.2237 9.01579C74.548 10.8165 73.5834 12.847 73.5845 15.0005C73.5856 17.1541 74.5491 19.1845 76.2237 20.9809C78.7383 23.6799 82.8538 25.9162 88.0033 27.5003C89.0308 27.816 90.1017 28.1034 91.2083 28.3647C83.567 27.6538 76.7385 26.4181 71.2259 24.798C66.7907 23.4916 63.2161 21.9423 60.786 20.2504C59.5699 19.4066 58.6432 18.5291 58.0308 17.6473C57.4184 16.7654 57.1204 15.8879 57.1204 15.0005C57.1204 14.1132 57.4228 13.2357 58.0362 12.3527C59.106 10.8078 61.1491 9.28362 63.9976 7.91072C68.2626 5.84213 74.3096 4.10016 81.5141 2.88623C84.5425 2.37235 87.7941 1.9521 91.2007 1.6331ZM70.9539 4.26783C66.4558 5.59173 62.801 7.16603 60.2354 8.94937C58.9532 9.84213 57.9409 10.7872 57.2385 11.7953C56.5362 12.8035 56.1449 13.8835 56.1449 15.0005C56.1449 16.1176 56.5329 17.1965 57.2353 18.2036C58.4665 19.9662 60.6375 21.5438 63.5651 22.9635C67.8573 25.0408 73.7904 26.7578 80.8334 27.9804C72.3716 27.2455 64.766 26.1513 58.4319 24.7872C52.3621 23.4807 47.4511 21.9205 44.103 20.2145C42.4284 19.3631 41.1462 18.4725 40.3094 17.5885C39.4727 16.7044 39.0738 15.84 39.0727 14.9984C39.0716 14.1568 39.4651 13.2978 40.3094 12.4072C41.7792 10.8525 44.6048 9.30866 48.51 7.92923C54.3651 5.85411 62.6481 4.10996 72.5017 2.88949C75.1702 2.56287 77.9557 2.26783 80.841 2.01851C77.5058 2.58242 74.2049 3.33447 70.9539 4.27109V4.26783ZM83.6179 24.8231C80.7706 23.5297 78.4847 21.9924 76.9293 20.3201C75.3739 18.6478 74.5513 16.8557 74.5448 15.0027C74.5383 13.1497 75.3664 11.3598 76.9293 9.68318C79.2607 7.17039 83.2418 4.97441 88.2851 3.42842C91.7774 2.35493 95.7769 1.58955 100.087 1.22047C97.4079 2.38084 95.1253 4.30412 93.5216 6.75281C91.9178 9.20151 91.0632 12.0684 91.0632 14.9995C91.0632 17.9305 91.9178 20.7974 93.5216 23.2461C95.1253 25.6948 97.4079 27.6181 100.087 28.7784C93.7012 28.2308 87.999 26.8144 83.6179 24.8231ZM58.2292 4.26238C52.1042 5.58193 47.1389 7.1497 43.6662 8.91671C41.932 9.80185 40.562 10.736 39.6071 11.7398C38.6522 12.7436 38.1037 13.8378 38.1037 15.006C38.1037 16.1742 38.6543 17.2662 39.6071 18.2657C41.2795 20.0174 44.2081 21.5765 48.1849 22.9897C53.4959 24.8699 60.6776 26.4627 69.1774 27.6549C60.1184 26.9374 51.9253 25.9641 44.9343 24.7904C37.1304 23.4839 30.8222 21.9194 26.5008 20.2036C24.3417 19.3479 22.6801 18.4496 21.5908 17.5547C21.119 17.1866 20.7122 16.7413 20.3877 16.2373C20.1426 15.8737 20.0116 15.4446 20.0116 15.0054C20.0116 14.5663 20.1426 14.1372 20.3877 13.7735C20.8679 12.9733 21.864 12.1154 23.3435 11.2836C25.9296 9.82145 29.9606 8.42787 35.1447 7.18236C43.7204 5.11377 55.4523 3.44366 69.1687 2.35602C65.2191 2.90582 61.5534 3.546 58.2292 4.26238ZM96.1194 24.92C93.835 22.6248 92.4135 19.6051 92.0972 16.3752C91.7808 13.1453 92.5891 9.9052 94.3844 7.20686C96.1797 4.50853 98.8509 2.51893 101.943 1.57706C105.035 0.635198 108.356 0.799336 111.341 2.04151C114.326 3.28369 116.79 5.52705 118.313 8.38937C119.836 11.2517 120.324 14.5559 119.693 17.7389C119.063 20.922 117.353 23.787 114.855 25.8459C112.358 27.9047 109.227 29.03 105.996 29.0299C104.161 29.0326 102.344 28.6708 100.649 27.9655C98.954 27.2602 97.4146 26.2251 96.1194 24.92ZM120.928 15.0005C120.929 12.0695 120.074 9.20251 118.471 6.75374C116.867 4.30498 114.585 2.38172 111.905 1.22156C118.29 1.76592 123.992 3.18127 128.373 5.1791C131.22 6.47251 133.507 8.0098 135.062 9.681C136.617 11.3522 137.436 13.1464 137.436 15.0005C137.436 16.8547 136.614 18.6424 135.058 20.3179C132.725 22.8296 128.744 25.0256 123.701 26.5716C120.209 27.644 116.209 28.4105 111.898 28.7795C114.579 27.6202 116.863 25.6974 118.468 23.2486C120.073 20.7997 120.928 17.9323 120.928 15.0005ZM138.407 15.0005C138.407 12.8459 137.442 10.8155 135.768 9.01905C133.252 6.32009 129.136 4.08383 123.988 2.50408C122.961 2.18835 121.89 1.90093 120.784 1.63963C128.425 2.34731 135.258 3.58628 140.765 5.20631C145.2 6.51279 148.775 8.06206 151.205 9.75395C152.42 10.5977 153.348 11.4752 153.961 12.3571C154.573 13.239 154.875 14.1165 154.876 15.0049C154.877 15.8933 154.574 16.7676 153.961 17.6516C152.891 19.1954 150.848 20.7197 147.999 22.0936C143.734 24.1622 137.686 25.9042 130.483 27.117C127.441 27.632 124.196 28.0523 120.786 28.368C123.737 27.6723 126.422 26.7741 128.767 25.7104C131.693 24.3767 134.087 22.7861 135.763 20.9853C137.44 19.1845 138.411 17.1541 138.411 15.0005H138.407ZM141.036 25.7289C145.536 24.405 149.189 22.8307 151.755 21.0474C153.037 20.1557 154.05 19.2107 154.753 18.2025C155.455 17.1943 155.843 16.1154 155.837 14.9995C155.83 13.8835 155.449 12.8024 154.753 11.7953C153.522 10.0327 151.351 8.45509 148.423 7.03538C144.133 4.96026 138.2 3.24115 131.158 2.01633C139.62 2.75123 147.225 3.8454 153.559 5.20958C159.629 6.51606 164.539 8.07621 167.888 9.78225C169.562 10.6336 170.844 11.5242 171.682 12.4083C172.52 13.2923 172.918 14.1568 172.918 14.9995C172.918 15.8421 172.525 16.699 171.682 17.5895C170.211 19.1443 167.385 20.6881 163.481 22.0675C157.628 24.1448 149.343 25.889 139.486 27.1094C136.817 27.436 134.031 27.7311 131.141 27.9804C134.479 27.4172 137.782 26.6655 141.036 25.7289ZM153.762 25.7376C159.886 24.4181 164.851 22.8492 168.325 21.0822C170.059 20.1971 171.428 19.264 172.384 18.2602C173.34 17.2564 173.888 16.1622 173.888 15.0005C173.888 13.8389 173.336 12.7392 172.384 11.7398C170.711 9.98694 167.784 8.42896 163.805 7.01579C158.494 5.13555 151.313 3.54273 142.814 2.35057C151.873 3.06805 160.066 4.04137 167.057 5.21502C174.861 6.5215 181.169 8.08601 185.489 9.80185C187.65 10.6576 189.31 11.5558 190.399 12.4507C190.872 12.8185 191.278 13.2639 191.603 13.7681C191.848 14.1317 191.979 14.5608 191.979 15C191.979 15.4392 191.848 15.8683 191.603 16.2319C191.122 17.0321 190.127 17.89 188.648 18.7218C186.062 20.184 182.03 21.5776 176.847 22.8231C168.27 24.8917 156.538 26.5618 142.821 27.6494C146.771 27.0942 150.442 26.4562 153.762 25.7376ZM31.4531 24.7828C21.9225 23.4763 14.2194 21.9096 8.92357 20.1884C6.2789 19.3293 4.23796 18.4257 2.89504 17.522C2.22412 17.0713 1.72987 16.6206 1.41554 16.1949C1.10122 15.7692 0.966819 15.3783 0.965735 14.9973C0.964651 14.6162 1.10122 14.2297 1.41554 13.7997C2.00084 12.9984 3.23537 12.1263 5.05087 11.2956C8.2288 9.82471 13.1604 8.42896 19.4946 7.18563C28.7434 5.35656 40.9868 3.83778 55.2453 2.75776C51.5221 3.21176 48.0212 3.71257 44.775 4.25803C36.9299 5.57539 30.5762 7.14099 26.1464 8.8982C23.9299 9.77899 22.1946 10.7044 20.9795 11.6984C20.4227 12.1365 19.9433 12.6658 19.5618 13.264C19.2253 13.7799 19.046 14.3832 19.046 15C19.046 15.6168 19.2253 16.2201 19.5618 16.736C20.1894 17.7648 21.3123 18.687 22.8698 19.5667C25.5969 21.1029 29.6863 22.5063 34.9193 23.7648C40.498 25.1072 47.3763 26.282 55.2463 27.239C46.4767 26.5781 38.4701 25.7485 31.4531 24.7828ZM210.575 16.1949C209.989 16.9962 208.756 17.8683 206.94 18.7044C203.763 20.1753 198.831 21.571 192.497 22.8187C183.247 24.6434 171.004 26.1622 156.744 27.2412C160.468 26.7882 163.97 26.2874 167.216 25.742C175.06 24.4246 181.415 22.8579 185.845 21.1007C188.06 20.221 189.797 19.2956 191.011 18.3005C191.568 17.8634 192.047 17.3343 192.428 16.736C192.766 16.2206 192.946 15.617 192.946 15C192.946 14.383 192.766 13.7794 192.428 13.264C191.802 12.2341 190.678 11.313 189.122 10.4333C186.394 8.89711 182.305 7.49374 177.071 6.23517C171.493 4.89276 164.614 3.71802 156.745 2.75993C165.514 3.42406 173.521 4.25367 180.538 5.21938C190.068 6.52586 197.772 8.09254 203.067 9.81383C205.711 10.6728 207.752 11.5754 209.095 12.4801C209.767 12.9309 210.261 13.3816 210.575 13.8073C210.888 14.233 211.023 14.6238 211.025 15.0049C211.026 15.386 210.889 15.767 210.575 16.1949Z" fill="#F2F2F2"/>
<path d="M102.931 12.0855C100.43 14.5864 98.0736 15 90.9963 15C97.7555 15 100.43 15.4136 102.931 17.9145C105.432 20.4154 105.845 22.772 105.845 29.8495C105.845 22.772 106.259 20.4154 108.76 17.9145C111.26 15.4136 113.617 15 120.694 15C113.617 15 111.26 14.5864 108.76 12.0855C106.259 9.58464 105.845 7.22799 105.845 0.150455C105.845 7.22799 105.432 9.58464 102.931 12.0855Z" fill="#FF6006"/>
</svg>
